<svg width="1920" height="3414" viewBox="0 0 1920 3414" fill="none" xmlns="http://www.w3.org/2000/svg">
<rect x="747.655" y="94" width="49" height="1640" transform="rotate(45 747.655 94)" fill="#E8E8E8"/>
<rect x="747.655" y="218" width="49" height="1640" transform="rotate(45 747.655 218)" fill="#E8E8E8" fill-opacity="0.5"/>
<rect x="852.655" y="250" width="49" height="1640" transform="rotate(45 852.655 250)" fill="#E8E8E8" fill-opacity="0.5"/>
<rect x="957.91" y="281.745" width="49" height="1692.69" transform="rotate(45 957.91 281.745)" fill="#E8E8E8" fill-opacity="0.5"/>
<rect x="1898.25" y="272.404" width="49" height="2780.15" transform="rotate(45 1898.25 272.404)" fill="#E8E8E8" fill-opacity="0.5"/>
<rect x="2020.86" y="272.404" width="49" height="2780.15" transform="rotate(45 2020.86 272.404)" fill="#E8E8E8" fill-opacity="0.5"/>
<rect x="2150.86" y="272.404" width="49" height="2780.15" transform="rotate(45 2150.86 272.404)" fill="#E8E8E8" fill-opacity="0.5"/>
<rect x="2282.86" y="272.404" width="49" height="2780.15" transform="rotate(45 2282.86 272.404)" fill="#E8E8E8" fill-opacity="0.5"/>
<rect x="1179.66" y="200.704" width="49" height="1759.91" transform="rotate(45 1179.66 200.704)" fill="#E8E8E8" fill-opacity="0.5"/>
<rect x="1510.36" width="49" height="2255.95" transform="rotate(45 1510.36 0)" fill="#E8E8E8" fill-opacity="0.5"/>
<rect x="1511.66" y="130.696" width="49" height="2248.74" transform="rotate(45 1511.66 130.696)" fill="#E8E8E8" fill-opacity="0.5"/>
<rect x="1499.54" y="277.821" width="49" height="2266.68" transform="rotate(45 1499.54 277.821)" fill="#E8E8E8" fill-opacity="0.5"/>
<rect x="1637.26" y="274.095" width="49" height="2373.31" transform="rotate(45 1637.26 274.095)" fill="#E8E8E8" fill-opacity="0.5"/>
<rect x="1775.97" y="262.384" width="49" height="2570.56" transform="rotate(45 1775.97 262.384)" fill="#E8E8E8" fill-opacity="0.5"/>
<path d="M1920 3365L-1.48411e-06 3365L-0.000126316 2165.82L1920 802L1920 1179.95L1920 3365Z" fill="#AADA91"/>
<rect x="2258.66" y="1987" width="49" height="1640" transform="rotate(45 2258.66 1987)" fill="white" fill-opacity="0.2"/>
<rect x="2292.66" y="2083" width="49" height="1640" transform="rotate(45 2292.66 2083)" fill="white" fill-opacity="0.2"/>
<rect x="2292.66" y="2219" width="49" height="1640" transform="rotate(45 2292.66 2219)" fill="white" fill-opacity="0.2"/>
</svg>
